<svg xmlns="http://www.w3.org/2000/svg" xmlns:xlink="http://www.w3.org/1999/xlink" viewBox="0 0 1000 1000"><defs><style>.cls-1{fill:none;}.cls-2{fill:#fff;}.cls-3{fill:url(#New_Pattern);}</style><pattern id="New_Pattern" data-name="New Pattern" width="50" height="50" patternUnits="userSpaceOnUse" viewBox="0 0 50 50"><rect class="cls-1" width="50" height="50"/><path class="cls-2" d="M49,1H1V49H49V1m1-1V50H0V0Z"/></pattern></defs><title>board</title><g id="Layer_1" data-name="Layer 1"><rect class="cls-3" x="147" y="147" width="706" height="706"/><path class="cls-2" d="M850,150V850H150V150H850m6-6H144V856H856V144Z"/><circle class="cls-2" cx="500" cy="500" r="5.5"/><path class="cls-2" d="M500,495a5,5,0,1,1-5,5,5,5,0,0,1,5-5m0-1a6,6,0,1,0,6,6,6,6,0,0,0-6-6Z"/><circle class="cls-2" cx="300" cy="700" r="5.5"/><path class="cls-2" d="M300,695a5,5,0,1,1-5,5,5,5,0,0,1,5-5m0-1a6,6,0,1,0,6,6,6,6,0,0,0-6-6Z"/><circle class="cls-2" cx="300" cy="300" r="5.5"/><path class="cls-2" d="M300,295a5,5,0,1,1-5,5,5,5,0,0,1,5-5m0-1a6,6,0,1,0,6,6,6,6,0,0,0-6-6Z"/><circle class="cls-2" cx="700" cy="300" r="5.5"/><path class="cls-2" d="M700,295a5,5,0,1,1-5,5,5,5,0,0,1,5-5m0-1a6,6,0,1,0,6,6,6,6,0,0,0-6-6Z"/><circle class="cls-2" cx="700" cy="700" r="5.5"/><path class="cls-2" d="M700,695a5,5,0,1,1-5,5,5,5,0,0,1,5-5m0-1a6,6,0,1,0,6,6,6,6,0,0,0-6-6Z"/></g></svg>