<svg id="Layer_1" data-name="Layer 1" xmlns="http://www.w3.org/2000/svg" viewBox="0 0 100 100"><defs><style>.cls-1{fill:#ff7bac;}</style></defs><title>P1</title><path class="cls-1" d="M37.66,55.27q11.33-1,22.67-1.15a1.5,1.5,0,0,0,0-3Q49,51.24,37.66,52.27c-1.91.18-1.92,3.18,0,3Z"/><path class="cls-1" d="M54.58,48Q62,51,69.43,54.08l.4-2.94c-6.33.8-11.63,2.57-15.31,8.09-1.08,1.61,1.52,3.12,2.59,1.52,3-4.56,7.53-6,12.72-6.61a1.51,1.51,0,0,0,.4-3q-7.4-3.11-14.85-6.08c-1.8-.71-2.58,2.19-.8,2.89Z"/></svg>