<svg id="Layer_1" data-name="Layer 1" xmlns="http://www.w3.org/2000/svg" viewBox="0 0 100 100"><defs><style>.cls-1{fill:#3fa9f5;}</style></defs><title>P2</title><path class="cls-1" d="M37.67,56.17a151.53,151.53,0,0,0,26.06-1.73c1.9-.29,1.1-3.18-.8-2.89a147.28,147.28,0,0,1-25.26,1.62c-1.93,0-1.93,3,0,3Z"/><path class="cls-1" d="M55.62,49.2A134.75,134.75,0,0,0,68.7,54l-.36-2.75a48.31,48.31,0,0,0-11.77,9c-1.34,1.39.78,3.51,2.12,2.12a45.76,45.76,0,0,1,11.16-8.5,1.51,1.51,0,0,0-.35-2.74,126,126,0,0,1-12.37-4.51c-1.75-.75-3.28,1.83-1.51,2.59Z"/></svg>